:FULLY-SPECIFIED
:FORCE-ALL-JOINTS-BE-3DOF
:DEGREES
194
root 8.15204 16.5056 -10.2221 6.99935 4.21491 -4.12595
lfemur -34.9058 1.72069 -14.7367
ltibia 25.6087 0 0
lfoot -11.327 9.76506 0
ltoes -16.0179 0 0
rfemur -3.85958 5.18511 30.5798
rtibia 12.3885 0 0
rfoot -20.0721 4.36928 0
rtoes -7.01012 0 0
lowerback -5.61073 1.09717 1.92713
upperback -0.749592 1.2589 3.62766
thorax 2.38375 0.630856 2.75682
lowerneck -16.3734 -6.66285 -14.4941
upperneck 14.7038 -8.44518 15.1195
head 8.56912 -3.44761 6.48655
lclavicle -7.17775e-15 -1.19762e-14 0
lhumerus -49.127 -8.46257 95.6053
lradius 26.8616 0 0
lwrist 7.57669 0 0
lhand -12.0533 -23.8004 0
lfingers 7.12502 0 0
lthumb 14.0045 5.69184 0
rclavicle -7.17775e-15 -1.19762e-14 0
rhumerus -36.3336 10.3588 -80.3749
rradius 49.8724 0 0
rwrist -25.8422 0 0
rhand -33.3937 -29.2951 0
rfingers 7.12502 0 0
rthumb -6.5943 -59.1725 0
195
root 8.15582 16.5118 -10.0947 7.01231 4.00361 -4.16489
lfemur -35.708 1.68942 -14.8725
ltibia 25.5891 0 0
lfoot -11.7198 9.85689 0
ltoes -15.9921 0 0
rfemur -3.28276 5.18886 30.619
rtibia 12.3542 0 0
rfoot -19.9752 4.38974 0
rtoes -7.0403 0 0
lowerback -5.61031 1.17769 1.95204
upperback -0.74794 1.36482 3.61344
thorax 2.3776 0.684098 2.73566
lowerneck -16.352 -6.65427 -14.481
upperneck 14.7105 -8.44191 15.1258
head 8.56714 -3.44556 6.48766
lclavicle -8.03759e-15 -1.16372e-14 0
lhumerus -49.2213 -8.64749 95.6735
lradius 26.9894 0 0
lwrist 7.8451 0 0
lhand -12.1411 -23.8602 0
lfingers 7.12502 0 0
lthumb 13.92 5.63965 0
rclavicle -8.03759e-15 -1.16372e-14 0
rhumerus -36.2379 10.4439 -80.4201
rradius 50.1401 0 0
rwrist -25.9812 0 0
rhand -33.4131 -29.3965 0
rfingers 7.12502 0 0
rthumb -6.61304 -59.2734 0
196
root 8.16031 16.5179 -9.96628 7.02548 3.7943 -4.2
lfemur -36.48 1.66295 -15.0092
ltibia 25.576 0 0
lfoot -12.0981 9.94383 0
ltoes -15.9578 0 0
rfemur -2.72718 5.18925 30.6496
rtibia 12.3425 0 0
rfoot -19.8673 4.40486 0
rtoes -7.07584 0 0
lowerback -5.60987 1.25545 1.97396
upperback -0.747048 1.46726 3.59864
thorax 2.37086 0.735596 2.71533
lowerneck -16.3335 -6.64528 -14.4677
upperneck 14.719 -8.43769 15.131
head 8.56603 -3.44305 6.48852
lclavicle -8.86617e-15 -1.13058e-14 0
lhumerus -49.3071 -8.82494 95.7358
lradius 27.1099 0 0
lwrist 8.09787 0 0
lhand -12.224 -23.9172 0
lfingers 7.12502 0 0
lthumb 13.8403 5.58975 0
rclavicle -8.86617e-15 -1.13058e-14 0
rhumerus -36.1507 10.5254 -80.4667
rradius 50.3928 0 0
rwrist -26.1129 0 0
rhand -33.43 -29.4938 0
rfingers 7.12502 0 0
rthumb -6.62934 -59.3703 0
197
root 8.16553 16.5238 -9.83664 7.03883 3.58735 -4.2313
lfemur -37.2209 1.64122 -15.1464
ltibia 25.5694 0 0
lfoot -12.4616 10.0258 0
ltoes -15.9152 0 0
rfemur -2.19355 5.18635 30.6717
rtibia 12.3528 0 0
rfoot -19.749 4.41472 0
rtoes -7.11659 0 0
lowerback -5.60941 1.33034 1.99289
upperback -0.746904 1.56607 3.58331
thorax 2.36357 0.785278 2.69584
lowerneck -16.3178 -6.6359 -14.4541
upperneck 14.729 -8.43256 15.1351
head 8.56577 -3.44008 6.48912
lclavicle -9.66237e-15 -1.09823e-14 0
lhumerus -49.3845 -8.9947 95.7923
lradius 27.2232 0 0
lwrist 8.3348 0 0
lhand -12.3017 -23.9715 0
lfingers 7.12502 0 0
lthumb 13.7655 5.54222 0
rclavicle -9.66237e-15 -1.09823e-14 0
rhumerus -36.0718 10.6033 -80.5146
rradius 50.6301 0 0
rwrist -26.2373 0 0
rhand -33.4444 -29.587 0
rfingers 7.12502 0 0
rthumb -6.64322 -59.4631 0
198
root 8.17151 16.5294 -9.70576 7.05235 3.38317 -4.25878
lfemur -37.9297 1.62421 -15.284
ltibia 25.569 0 0
lfoot -12.8096 10.1027 0
ltoes -15.8647 0 0
rfemur -1.68262 5.18022 30.6853
rtibia 12.3849 0 0
rfoot -19.6206 4.4194 0
rtoes -7.16235 0 0
lowerback -5.60894 1.40225 2.00885
upperback -0.747493 1.66112 3.56748
thorax 2.35574 0.833072 2.67723
lowerneck -16.3049 -6.62616 -14.4404
upperneck 14.7406 -8.42654 15.1382
head 8.56636 -3.43667 6.48946
lclavicle -1.04251e-14 -1.06673e-14 0
lhumerus -49.4534 -9.15654 95.8429
lradius 27.3291 0 0
lwrist 8.55565 0 0
lhand -12.3744 -24.023 0
lfingers 7.12502 0 0
lthumb 13.6955 5.49709 0
rclavicle -1.04251e-14 -1.06673e-14 0
rhumerus -36.0014 10.6775 -80.5635
rradius 50.8519 0 0
rwrist -26.3542 0 0
rhand -33.4562 -29.676 0
rfingers 7.12502 0 0
rthumb -6.65469 -59.5517 0
199
root 8.17825 16.5349 -9.57357 7.06598 3.18215 -4.28245
lfemur -38.6052 1.61186 -15.4216
ltibia 25.5748 0 0
lfoot -13.1417 10.1745 0
ltoes -15.8063 0 0
rfemur -1.19511 5.17094 30.6905
rtibia 12.4383 0 0
rfoot -19.4825 4.41896 0
rtoes -7.21295 0 0
lowerback -5.60846 1.47109 2.02185
upperback -0.748804 1.75225 3.5512
thorax 2.34741 0.878905 2.65952
lowerneck -16.2949 -6.61608 -14.4265
upperneck 14.7537 -8.41966 15.1403
head 8.56777 -3.43284 6.48956
lclavicle -1.11533e-14 -1.03614e-14 0
lhumerus -49.5139 -9.31024 95.8876
lradius 27.4274 0 0
lwrist 8.76023 0 0
lhand -12.4419 -24.0716 0
lfingers 7.12502 0 0
lthumb 13.6306 5.45444 0
rclavicle -1.11533e-14 -1.03614e-14 0
rhumerus -35.9394 10.7478 -80.6135
rradius 51.0579 0 0
rwrist -26.4636 0 0
rhand -33.4656 -29.7605 0
rfingers 7.12502 0 0
rthumb -6.66376 -59.6359 0
200
root 8.18578 16.5401 -9.44 7.07971 2.98469 -4.30231
lfemur -39.2466 1.60416 -15.5588
ltibia 25.5868 0 0
lfoot -13.4574 10.2411 0
ltoes -15.7405 0 0
rfemur -0.731753 5.15855 30.6875
rtibia 12.5126 0 0
rfoot -19.3353 4.41349 0
rtoes -7.26821 0 0
lowerback -5.60796 1.53673 2.03191
upperback -0.750823 1.83933 3.53451
thorax 2.33859 0.922705 2.64274
lowerneck -16.2876 -6.60571 -14.4125
upperneck 14.7682 -8.41194 15.1414
head 8.56998 -3.42859 6.48941
lclavicle -1.18458e-14 -1.00651e-14 0
lhumerus -49.5659 -9.45559 95.9264
lradius 27.5181 0 0
lwrist 8.94831 0 0
lhand -12.5042 -24.1172 0
lfingers 7.12502 0 0
lthumb 13.5707 5.41432 0
rclavicle -1.18458e-14 -1.00651e-14 0
rhumerus -35.8859 10.8142 -80.6644
rradius 51.2479 0 0
rwrist -26.5651 0 0
rhand -33.4726 -29.8405 0
rfingers 7.12502 0 0
rthumb -6.67044 -59.7158 0
